<?xml version="1.0" encoding="UTF-8" standalone="no"?>
<!-- Created with Inkscape (http://www.inkscape.org/) -->

<svg
   xmlns:dc="http://purl.org/dc/elements/1.1/"
   xmlns:cc="http://creativecommons.org/ns#"
   xmlns:rdf="http://www.w3.org/1999/02/22-rdf-syntax-ns#"
   xmlns:svg="http://www.w3.org/2000/svg"
   xmlns="http://www.w3.org/2000/svg"
   xmlns:sodipodi="http://sodipodi.sourceforge.net/DTD/sodipodi-0.dtd"
   xmlns:inkscape="http://www.inkscape.org/namespaces/inkscape"
   width="41.199425mm"
   height="10.301043mm"
   viewBox="0 0 41.199425 10.301043"
   version="1.1"
   id="svg1014"
   inkscape:version="0.92.3 (2405546, 2018-03-11)"
   sodipodi:docname="hacktivity-logo.svg">
  <defs
     id="defs1008" />
  <sodipodi:namedview
     id="base"
     pagecolor="#ffffff"
     bordercolor="#666666"
     borderopacity="1.0"
     inkscape:pageopacity="0.0"
     inkscape:pageshadow="2"
     inkscape:zoom="1.979899"
     inkscape:cx="50.269636"
     inkscape:cy="-199.89381"
     inkscape:document-units="mm"
     inkscape:current-layer="text870"
     showgrid="false"
     fit-margin-top="0"
     fit-margin-left="0"
     fit-margin-right="0"
     fit-margin-bottom="0"
     inkscape:window-width="1080"
     inkscape:window-height="1855"
     inkscape:window-x="0"
     inkscape:window-y="0"
     inkscape:window-maximized="1" />
  <metadata
     id="metadata1011">
    <rdf:RDF>
      <cc:Work
         rdf:about="">
        <dc:format>image/svg+xml</dc:format>
        <dc:type
           rdf:resource="http://purl.org/dc/dcmitype/StillImage" />
        <dc:title></dc:title>
      </cc:Work>
    </rdf:RDF>
  </metadata>
  <g
     inkscape:label="Layer 1"
     inkscape:groupmode="layer"
     id="layer1"
     transform="translate(-1.3229067,-4.5875722)">
    <g
       transform="translate(-10.505928,-117.0458)"
       id="g882">
      <g
         aria-label="Hacktivity"
         style="font-style:normal;font-weight:normal;font-size:10.58333302px;line-height:125%;font-family:sans-serif;letter-spacing:0px;word-spacing:0px;fill:#dda0dd;fill-opacity:1;stroke:none;stroke-width:0.26458332px;stroke-linecap:butt;stroke-linejoin:miter;stroke-opacity:1"
         id="text870">
        <path
           d="m 16.824168,128.84062 h -1.3335 v -3.00566 h -2.31775 v 3.00566 h -1.344083 v -7.20725 h 1.344083 v 2.99509 h 2.31775 v -2.99509 h 1.3335 z"
           style="font-style:normal;font-variant:normal;font-weight:normal;font-stretch:normal;font-family:'Do Hyeon';-inkscape-font-specification:'Do Hyeon';fill:#dda0dd;fill-opacity:1;stroke-width:0.26458332px"
           id="path1592" />
        <path
           d="m 17.643384,125.15762 q 0.03175,-0.33866 0.148167,-0.64558 0.127,-0.30692 0.359833,-0.53975 0.232833,-0.23283 0.582083,-0.37042 0.34925,-0.14816 0.804333,-0.14816 h 0.635 q 0.47625,0 0.8255,0.15875 0.359834,0.15875 0.592667,0.42333 0.232833,0.254 0.34925,0.59267 0.116417,0.32808 0.116417,0.66675 v 3.54541 h -3.005667 q -0.34925,0 -0.624417,-0.127 -0.275166,-0.13758 -0.465666,-0.34925 -0.179917,-0.22225 -0.275167,-0.51858 -0.08467,-0.29633 -0.08467,-0.635 0,-0.32808 0.09525,-0.61383 0.09525,-0.28575 0.275166,-0.48684 0.179917,-0.21166 0.4445,-0.32808 0.275167,-0.127 0.613833,-0.127 h 1.80975 v -0.10583 q 0,-0.1905 -0.03175,-0.34925 -0.03175,-0.16934 -0.116416,-0.28575 -0.08467,-0.11642 -0.254,-0.17992 -0.169334,-0.0741 -0.455084,-0.0741 h -0.264583 q -0.423333,0 -0.60325,0.127 -0.179917,0.11641 -0.243417,0.37041 z m 1.090083,2.05317 q 0,0.27517 0.105833,0.41275 0.116417,0.127 0.254,0.127 h 1.74625 v -1.0795 H 19.0933 q -0.137583,0 -0.254,0.13758 -0.105833,0.13759 -0.105833,0.40217 z"
           style="font-style:normal;font-variant:normal;font-weight:normal;font-stretch:normal;font-family:'Do Hyeon';-inkscape-font-specification:'Do Hyeon';fill:#dda0dd;fill-opacity:1;stroke-width:0.26458332px"
           id="path1594" />
        <path
           d="m 25.119186,127.62354 q 0.254,0 0.433916,-0.11642 0.179917,-0.127 0.232834,-0.33866 h 1.259416 q -0.09525,0.762 -0.592666,1.21708 -0.497417,0.45508 -1.3335,0.45508 h -0.433917 q -0.455083,0 -0.8255,-0.13758 -0.370417,-0.13758 -0.624417,-0.39158 -0.254,-0.26459 -0.402166,-0.62442 -0.137584,-0.37042 -0.137584,-0.81492 v -1.44991 q 0,-0.45509 0.137584,-0.81492 0.148166,-0.35983 0.402166,-0.61383 0.254,-0.254 0.624417,-0.39159 0.370417,-0.14816 0.8255,-0.14816 h 0.433917 q 0.85725,0 1.354666,0.45508 0.497417,0.45508 0.5715,1.24883 h -1.248833 q -0.0635,-0.23283 -0.232833,-0.35983 -0.169334,-0.127 -0.4445,-0.127 h -0.433917 q -0.338667,0 -0.560917,0.22225 -0.211666,0.21167 -0.211666,0.56092 v 1.37583 q 0,0.34925 0.211666,0.5715 0.22225,0.22225 0.560917,0.22225 z"
           style="font-style:normal;font-variant:normal;font-weight:normal;font-stretch:normal;font-family:'Do Hyeon';-inkscape-font-specification:'Do Hyeon';fill:#dda0dd;fill-opacity:1;stroke-width:0.26458332px"
           id="path1596" />
        <path
           d="m 32.137754,128.84062 h -1.396999 l -1.820334,-2.05316 v 2.05316 h -1.248833 v -7.20725 h 1.248833 v 3.52425 l 1.7145,-1.70391 h 1.471083 l -2.592916,2.48708 z"
           style="font-style:normal;font-variant:normal;font-weight:normal;font-stretch:normal;font-family:'Do Hyeon';-inkscape-font-specification:'Do Hyeon';fill:#dda0dd;fill-opacity:1;stroke-width:0.26458332px"
           id="path1598" />
        <path
           d="m 32.337184,123.45371 h 0.994833 v -1.82034 h 1.248833 v 1.82034 h 0.994834 v 1.21708 H 34.58085 v 4.16983 h -1.248833 v -4.16983 h -0.994833 z"
           style="font-style:normal;font-variant:normal;font-weight:normal;font-stretch:normal;font-family:'Do Hyeon';-inkscape-font-specification:'Do Hyeon';fill:#dda0dd;fill-opacity:1;stroke-width:0.26458332px"
           id="path1600" />
        <path
           d="M 37.457863,128.84062 H 36.20903 v -5.38691 h 1.248833 z m 0,-5.969 H 36.20903 v -1.23825 h 1.248833 z"
           style="font-style:normal;font-variant:normal;font-weight:normal;font-stretch:normal;font-family:'Do Hyeon';-inkscape-font-specification:'Do Hyeon';fill:#dda0dd;fill-opacity:1;stroke-width:0.26458332px"
           id="path1602" />
        <path
           d="M 40.866523,128.84062 H 39.68119 l -1.629833,-5.38691 h 1.17475 l 1.037166,3.41841 1.005417,-3.41841 h 1.185333 z"
           style="font-style:normal;font-variant:normal;font-weight:normal;font-stretch:normal;font-family:'Do Hyeon';-inkscape-font-specification:'Do Hyeon';fill:#dda0dd;fill-opacity:1;stroke-width:0.26458332px"
           id="path1604" />
        <path
           d="m 44.382506,128.84062 h -1.248833 v -5.38691 h 1.248833 z m 0,-5.969 h -1.248833 v -1.23825 h 1.248833 z"
           style="font-style:normal;font-variant:normal;font-weight:normal;font-stretch:normal;font-family:'Do Hyeon';-inkscape-font-specification:'Do Hyeon';fill:#dda0dd;fill-opacity:1;stroke-width:0.26458332px"
           id="path1606" />
        <path
           d="m 45.028914,123.45371 h 0.994833 v -1.82034 h 1.248834 v 1.82034 h 0.994833 v 1.21708 h -0.994833 v 4.16983 h -1.248834 v -4.16983 h -0.994833 z"
           style="font-style:normal;font-variant:normal;font-weight:normal;font-stretch:normal;font-family:'Do Hyeon';-inkscape-font-specification:'Do Hyeon';fill:#dda0dd;fill-opacity:1;stroke-width:0.26458332px"
           id="path1608" />
        <path
           d="m 50.879844,130.68212 h -1.164167 l 0.53975,-1.86266 -1.629833,-5.36575 h 1.17475 l 1.026583,3.43958 1.016,-3.43958 h 1.185333 z"
           style="font-style:normal;font-variant:normal;font-weight:normal;font-stretch:normal;font-family:'Do Hyeon';-inkscape-font-specification:'Do Hyeon';fill:#dda0dd;fill-opacity:1;stroke-width:0.26458332px"
           id="path1610" />
      </g>
      <g
         aria-label="Cyber Security Labs"
         style="font-style:normal;font-weight:normal;font-size:10.58333302px;line-height:125%;font-family:sans-serif;letter-spacing:0px;word-spacing:0px;fill:#ffffff;fill-opacity:1;stroke:none;stroke-width:0.26458332px;stroke-linecap:butt;stroke-linejoin:miter;stroke-opacity:1"
         id="text874">
        <path
           d="m 16.209688,130.95581 q 0.09719,0 0.140758,-0.057 0.04692,-0.0603 0.07038,-0.14411 h 0.422275 q -0.01341,0.124 -0.06368,0.23459 -0.05027,0.10725 -0.134055,0.18768 -0.08043,0.0804 -0.194381,0.12735 -0.110596,0.0469 -0.237949,0.0469 H 15.92482 q -0.134056,0 -0.254706,-0.0503 -0.12065,-0.0536 -0.211137,-0.14411 -0.09049,-0.0905 -0.14411,-0.21114 -0.05027,-0.12065 -0.05027,-0.25805 v -0.9518 q 0,-0.1374 0.05027,-0.25805 0.05362,-0.12401 0.14411,-0.21449 0.09049,-0.0905 0.211137,-0.14076 0.12065,-0.0536 0.254706,-0.0536 h 0.288219 q 0.130705,0 0.2413,0.0469 0.110596,0.0469 0.19103,0.1307 0.08378,0.0804 0.134055,0.19103 0.05027,0.1106 0.06368,0.23795 h -0.422275 q -0.01676,-0.0871 -0.06368,-0.14746 -0.04692,-0.0603 -0.147461,-0.0603 h -0.281517 q -0.117298,0 -0.187677,0.0838 -0.06703,0.0838 -0.06703,0.20443 v 0.90823 q 0,0.12065 0.06703,0.20778 0.07038,0.0838 0.187677,0.0838 z"
           style="font-style:normal;font-variant:normal;font-weight:normal;font-stretch:normal;font-size:3.35138893px;font-family:'Do Hyeon';-inkscape-font-specification:'Do Hyeon';letter-spacing:0.3175px;fill:#f5f5f5;fill-opacity:1;stroke-width:0.26458332px"
           id="path1613" />
        <path
           d="m 18.051337,131.93441 h -0.368653 l 0.170921,-0.58984 -0.516114,-1.69915 h 0.372004 l 0.325085,1.0892 0.321733,-1.0892 h 0.375356 z"
           style="font-style:normal;font-variant:normal;font-weight:normal;font-stretch:normal;font-size:3.35138893px;font-family:'Do Hyeon';-inkscape-font-specification:'Do Hyeon';letter-spacing:0.3175px;fill:#f5f5f5;fill-opacity:1;stroke-width:0.26458332px"
           id="path1615" />
        <path
           d="m 19.965145,129.64542 q 0.147461,0 0.261409,0.0469 0.117298,0.0436 0.197732,0.124 0.08378,0.0804 0.127352,0.19438 0.04357,0.11394 0.04357,0.25805 v 0.45914 q 0,0.14076 -0.04357,0.25806 -0.04357,0.11395 -0.127352,0.19773 -0.08043,0.0804 -0.197732,0.124 -0.113948,0.0436 -0.261409,0.0436 H 19.83109 q -0.147461,0 -0.26476,-0.0436 -0.113947,-0.0436 -0.197732,-0.124 -0.08043,-0.0838 -0.124001,-0.19773 -0.04357,-0.1173 -0.04357,-0.25806 v -0.45914 -0.0268 -1.17298 h 0.395464 v 0.62 q 0.124001,-0.0436 0.261408,-0.0436 z m -0.134055,0.38541 q -0.107245,0 -0.170921,0.067 -0.06032,0.067 -0.06368,0.17092 v 0.44574 q 0,0.11059 0.06368,0.18097 0.06368,0.0704 0.170921,0.0704 h 0.134055 q 0.107245,0 0.174273,-0.0704 0.06703,-0.0704 0.06703,-0.18097 v -0.43568 q 0,-0.1106 -0.06703,-0.17763 -0.06703,-0.0704 -0.174273,-0.0704 z"
           style="font-style:normal;font-variant:normal;font-weight:normal;font-stretch:normal;font-size:3.35138893px;font-family:'Do Hyeon';-inkscape-font-specification:'Do Hyeon';letter-spacing:0.3175px;fill:#f5f5f5;fill-opacity:1;stroke-width:0.26458332px"
           id="path1617" />
        <path
           d="m 21.141701,130.25202 q 0,-0.124 0.04692,-0.23125 0.04692,-0.11059 0.124002,-0.19438 0.07708,-0.0838 0.177623,-0.1307 0.100542,-0.0503 0.201083,-0.0503 h 0.382059 q 0.130704,0 0.231246,0.057 0.103893,0.0536 0.17092,0.14076 0.07038,0.0838 0.107245,0.19103 0.04022,0.10389 0.04022,0.20443 v 0.43233 h -1.08585 v 0.0905 q 0,0.12065 0.06703,0.17092 0.06703,0.0503 0.177624,0.0503 h 0.780874 v 0.37536 h -0.86801 q -0.113947,0 -0.214489,-0.0436 -0.100542,-0.0469 -0.177624,-0.124 -0.07373,-0.0771 -0.117298,-0.18433 -0.04357,-0.10724 -0.04357,-0.2346 z m 0.398815,0.10054 h 0.693737 v -0.0168 q 0,-0.1307 -0.06703,-0.21449 -0.06703,-0.0871 -0.180975,-0.0871 h -0.207786 q -0.05362,0 -0.09719,0.0268 -0.04357,0.0235 -0.07373,0.0637 -0.03016,0.0402 -0.05027,0.0972 -0.01676,0.0536 -0.01676,0.11395 z"
           style="font-style:normal;font-variant:normal;font-weight:normal;font-stretch:normal;font-size:3.35138893px;font-family:'Do Hyeon';-inkscape-font-specification:'Do Hyeon';letter-spacing:0.3175px;fill:#f5f5f5;fill-opacity:1;stroke-width:0.26458332px"
           id="path1619" />
        <path
           d="m 23.610321,129.99396 q 0.04692,-0.0771 0.124001,-0.13406 0.08043,-0.0603 0.174272,-0.10054 0.09719,-0.0402 0.204435,-0.0603 0.107245,-0.0201 0.214489,-0.0201 h 0.04357 v 0.41557 h -0.04357 q -0.12065,0 -0.248003,0.0503 -0.127353,0.0469 -0.234597,0.12736 -0.103893,0.0771 -0.170921,0.17427 -0.06368,0.0972 -0.06368,0.19438 v 0.71049 h -0.415572 v -1.71926 h 0.415572 z"
           style="font-style:normal;font-variant:normal;font-weight:normal;font-stretch:normal;font-size:3.35138893px;font-family:'Do Hyeon';-inkscape-font-specification:'Do Hyeon';letter-spacing:0.3175px;fill:#f5f5f5;fill-opacity:1;stroke-width:0.26458332px"
           id="path1621" />
        <path
           d="m 27.545863,129.93699 q 0.140758,0 0.261408,0.0536 0.124002,0.0536 0.211138,0.15081 0.09049,0.0938 0.137407,0.2279 0.05027,0.1307 0.05027,0.28822 0,0.14746 -0.04692,0.27481 -0.04357,0.12735 -0.127353,0.22119 -0.08378,0.0905 -0.197732,0.14411 -0.113947,0.0536 -0.254705,0.0536 H 26.540446 V 130.929 h 0.918281 q 0.06703,0 0.127353,-0.0168 0.06368,-0.0168 0.107244,-0.0503 0.04357,-0.0335 0.07038,-0.0838 0.02681,-0.0503 0.02681,-0.12065 0,-0.13071 -0.08714,-0.20444 -0.08378,-0.0737 -0.211137,-0.0737 h -0.271463 q -0.170921,0 -0.311679,-0.0369 -0.140758,-0.0369 -0.237949,-0.11729 -0.09719,-0.0804 -0.150812,-0.20779 -0.05362,-0.12735 -0.05362,-0.30498 0,-0.124 0.04357,-0.2413 0.04357,-0.1173 0.12065,-0.20443 0.07708,-0.0905 0.187678,-0.14411 0.110595,-0.0536 0.244651,-0.0536 h 0.94174 v 0.44573 h -0.767468 q -0.06703,0 -0.124001,0.0101 -0.05697,0.007 -0.100542,0.0302 -0.04357,0.0201 -0.06703,0.0637 -0.02346,0.0436 -0.02346,0.1173 0,0.0838 0.05697,0.14411 0.05697,0.057 0.154164,0.057 z"
           style="font-style:normal;font-variant:normal;font-weight:normal;font-stretch:normal;font-size:3.35138893px;font-family:'Do Hyeon';-inkscape-font-specification:'Do Hyeon';letter-spacing:0.3175px;fill:#f5f5f5;fill-opacity:1;stroke-width:0.26458332px"
           id="path1623" />
        <path
           d="m 28.741375,130.25202 q 0,-0.124 0.04692,-0.23125 0.04692,-0.11059 0.124002,-0.19438 0.07708,-0.0838 0.177623,-0.1307 0.100542,-0.0503 0.201084,-0.0503 h 0.382058 q 0.130704,0 0.231246,0.057 0.103893,0.0536 0.170921,0.14076 0.07038,0.0838 0.107244,0.19103 0.04022,0.10389 0.04022,0.20443 v 0.43233 h -1.08585 v 0.0905 q 0,0.12065 0.06703,0.17092 0.06703,0.0503 0.177623,0.0503 h 0.780874 v 0.37536 h -0.86801 q -0.113947,0 -0.214489,-0.0436 -0.100541,-0.0469 -0.177623,-0.124 -0.07373,-0.0771 -0.117299,-0.18433 -0.04357,-0.10724 -0.04357,-0.2346 z m 0.398815,0.10054 h 0.693738 v -0.0168 q 0,-0.1307 -0.06703,-0.21449 -0.06703,-0.0871 -0.180975,-0.0871 h -0.207786 q -0.05362,0 -0.09719,0.0268 -0.04357,0.0235 -0.07373,0.0637 -0.03016,0.0402 -0.05027,0.0972 -0.01676,0.0536 -0.01676,0.11395 z"
           style="font-style:normal;font-variant:normal;font-weight:normal;font-stretch:normal;font-size:3.35138893px;font-family:'Do Hyeon';-inkscape-font-specification:'Do Hyeon';letter-spacing:0.3175px;fill:#f5f5f5;fill-opacity:1;stroke-width:0.26458332px"
           id="path1625" />
        <path
           d="m 31.491511,130.96586 q 0.08043,0 0.137407,-0.0369 0.05697,-0.0402 0.07373,-0.10725 h 0.398815 q -0.03016,0.2413 -0.187678,0.38541 -0.157515,0.14411 -0.422275,0.14411 h -0.137407 q -0.144109,0 -0.261408,-0.0436 -0.117299,-0.0436 -0.197732,-0.124 -0.08043,-0.0838 -0.127353,-0.19773 -0.04357,-0.1173 -0.04357,-0.25806 v -0.45914 q 0,-0.14411 0.04357,-0.25805 0.04692,-0.11395 0.127353,-0.19438 0.08043,-0.0804 0.197732,-0.124 0.117299,-0.0469 0.261408,-0.0469 h 0.137407 q 0.271463,0 0.428978,0.14411 0.157515,0.14411 0.180975,0.39546 H 31.706 q -0.02011,-0.0737 -0.07373,-0.11395 -0.05362,-0.0402 -0.140759,-0.0402 h -0.137407 q -0.107244,0 -0.177623,0.0704 -0.06703,0.067 -0.06703,0.17763 v 0.43568 q 0,0.11059 0.06703,0.18097 0.07038,0.0704 0.177623,0.0704 z"
           style="font-style:normal;font-variant:normal;font-weight:normal;font-stretch:normal;font-size:3.35138893px;font-family:'Do Hyeon';-inkscape-font-specification:'Do Hyeon';letter-spacing:0.3175px;fill:#f5f5f5;fill-opacity:1;stroke-width:0.26458332px"
           id="path1627" />
        <path
           d="m 33.357929,130.96921 q 0.08378,0 0.134056,-0.0201 0.05362,-0.0201 0.08378,-0.0536 0.03351,-0.0335 0.04692,-0.0804 0.0134,-0.0469 0.0134,-0.10054 v -1.06909 h 0.392113 v 1.70585 h -0.392113 v -0.0436 q -0.05362,0.0235 -0.117298,0.0335 -0.06032,0.0101 -0.130704,0.0101 h -0.170921 q -0.150813,0 -0.26476,-0.0503 -0.110596,-0.0503 -0.184326,-0.1307 -0.07373,-0.0838 -0.113948,-0.18768 -0.03686,-0.10724 -0.03686,-0.21449 v -1.12271 h 0.388761 v 1.04228 q 0,0.0603 0.01005,0.11059 0.01006,0.0503 0.04022,0.0905 0.03016,0.0369 0.08379,0.0603 0.05362,0.0201 0.14411,0.0201 z"
           style="font-style:normal;font-variant:normal;font-weight:normal;font-stretch:normal;font-size:3.35138893px;font-family:'Do Hyeon';-inkscape-font-specification:'Do Hyeon';letter-spacing:0.3175px;fill:#f5f5f5;fill-opacity:1;stroke-width:0.26458332px"
           id="path1629" />
        <path
           d="m 35.032742,129.99396 q 0.04692,-0.0771 0.124001,-0.13406 0.08043,-0.0603 0.174272,-0.10054 0.09719,-0.0402 0.204435,-0.0603 0.107245,-0.0201 0.214489,-0.0201 h 0.04357 v 0.41557 h -0.04357 q -0.12065,0 -0.248003,0.0503 -0.127353,0.0469 -0.234597,0.12736 -0.103893,0.0771 -0.170921,0.17427 -0.06368,0.0972 -0.06368,0.19438 v 0.71049 H 34.61717 v -1.71926 h 0.415572 z"
           style="font-style:normal;font-variant:normal;font-weight:normal;font-stretch:normal;font-size:3.35138893px;font-family:'Do Hyeon';-inkscape-font-specification:'Do Hyeon';letter-spacing:0.3175px;fill:#f5f5f5;fill-opacity:1;stroke-width:0.26458332px"
           id="path1631" />
        <path
           d="m 36.757093,131.35127 h -0.395464 v -1.70585 h 0.395464 z m 0,-1.89018 h -0.395464 v -0.39211 h 0.395464 z"
           style="font-style:normal;font-variant:normal;font-weight:normal;font-stretch:normal;font-size:3.35138893px;font-family:'Do Hyeon';-inkscape-font-specification:'Do Hyeon';letter-spacing:0.3175px;fill:#f5f5f5;fill-opacity:1;stroke-width:0.26458332px"
           id="path1633" />
        <path
           d="m 37.279288,129.64542 h 0.31503 v -0.57644 h 0.395464 v 0.57644 h 0.315031 v 0.38541 h -0.315031 v 1.32044 h -0.395464 v -1.32044 h -0.31503 z"
           style="font-style:normal;font-variant:normal;font-weight:normal;font-stretch:normal;font-size:3.35138893px;font-family:'Do Hyeon';-inkscape-font-specification:'Do Hyeon';letter-spacing:0.3175px;fill:#f5f5f5;fill-opacity:1;stroke-width:0.26458332px"
           id="path1635" />
        <path
           d="M 39.449583,131.93441 H 39.08093 l 0.170921,-0.58984 -0.516114,-1.69915 h 0.372004 l 0.325085,1.0892 0.321733,-1.0892 h 0.375356 z"
           style="font-style:normal;font-variant:normal;font-weight:normal;font-stretch:normal;font-size:3.35138893px;font-family:'Do Hyeon';-inkscape-font-specification:'Do Hyeon';letter-spacing:0.3175px;fill:#f5f5f5;fill-opacity:1;stroke-width:0.26458332px"
           id="path1637" />
        <path
           d="m 42.572517,130.96586 h 1.236663 v 0.38541 h -1.638829 v -2.28229 h 0.402166 z"
           style="font-style:normal;font-variant:normal;font-weight:normal;font-stretch:normal;font-size:3.35138893px;font-family:'Do Hyeon';-inkscape-font-specification:'Do Hyeon';letter-spacing:0.3175px;fill:#f5f5f5;fill-opacity:1;stroke-width:0.26458332px"
           id="path1639" />
        <path
           d="m 44.323523,130.18499 q 0.01005,-0.10725 0.04692,-0.20444 0.04022,-0.0972 0.113947,-0.17092 0.07373,-0.0737 0.184326,-0.11729 0.110596,-0.0469 0.254706,-0.0469 h 0.201083 q 0.150813,0 0.261408,0.0503 0.113948,0.0503 0.187678,0.13405 0.07373,0.0804 0.110596,0.18768 0.03686,0.10389 0.03686,0.21114 v 1.12271 h -0.951794 q -0.110596,0 -0.197732,-0.0402 -0.08714,-0.0436 -0.147461,-0.1106 -0.05697,-0.0704 -0.08714,-0.16422 -0.02681,-0.0938 -0.02681,-0.20108 0,-0.10389 0.03016,-0.19438 0.03016,-0.0905 0.08714,-0.15417 0.05697,-0.067 0.140759,-0.10389 0.08714,-0.0402 0.19438,-0.0402 h 0.573088 v -0.0335 q 0,-0.0603 -0.01005,-0.1106 -0.01005,-0.0536 -0.03687,-0.0905 -0.02681,-0.0369 -0.08043,-0.057 -0.05362,-0.0235 -0.14411,-0.0235 h -0.08378 q -0.134055,0 -0.191029,0.0402 -0.05697,0.0369 -0.07708,0.1173 z m 0.345193,0.65017 q 0,0.0871 0.03351,0.1307 0.03686,0.0402 0.08043,0.0402 h 0.55298 v -0.34184 h -0.55298 q -0.04357,0 -0.08043,0.0436 -0.03351,0.0436 -0.03351,0.12735 z"
           style="font-style:normal;font-variant:normal;font-weight:normal;font-stretch:normal;font-size:3.35138893px;font-family:'Do Hyeon';-inkscape-font-specification:'Do Hyeon';letter-spacing:0.3175px;fill:#f5f5f5;fill-opacity:1;stroke-width:0.26458332px"
           id="path1641" />
        <path
           d="m 47.041874,129.64542 q 0.147461,0 0.261408,0.0469 0.117299,0.0436 0.197732,0.124 0.08378,0.0804 0.127353,0.19438 0.04357,0.11394 0.04357,0.25805 v 0.45914 q 0,0.14076 -0.04357,0.25806 -0.04357,0.11395 -0.127353,0.19773 -0.08043,0.0804 -0.197732,0.124 -0.113947,0.0436 -0.261408,0.0436 h -0.134056 q -0.147461,0 -0.26476,-0.0436 -0.113947,-0.0436 -0.197732,-0.124 -0.08043,-0.0838 -0.124001,-0.19773 -0.04357,-0.1173 -0.04357,-0.25806 v -0.45914 -0.0268 -1.17298 h 0.395464 v 0.62 q 0.124001,-0.0436 0.261408,-0.0436 z m -0.134056,0.38541 q -0.107244,0 -0.170921,0.067 -0.06032,0.067 -0.06368,0.17092 v 0.44574 q 0,0.11059 0.06368,0.18097 0.06368,0.0704 0.170921,0.0704 h 0.134056 q 0.107244,0 0.174272,-0.0704 0.06703,-0.0704 0.06703,-0.18097 v -0.43568 q 0,-0.1106 -0.06703,-0.17763 -0.06703,-0.0704 -0.174272,-0.0704 z"
           style="font-style:normal;font-variant:normal;font-weight:normal;font-stretch:normal;font-size:3.35138893px;font-family:'Do Hyeon';-inkscape-font-specification:'Do Hyeon';letter-spacing:0.3175px;fill:#f5f5f5;fill-opacity:1;stroke-width:0.26458332px"
           id="path1643" />
        <path
           d="m 49.431633,129.9772 h -0.666926 q -0.04357,0 -0.07373,0.0168 -0.02681,0.0134 -0.04692,0.0402 -0.02011,0.0268 -0.03016,0.0603 -0.01005,0.0302 -0.01005,0.0603 0,0.0637 0.04022,0.1173 0.04357,0.0503 0.103893,0.0503 h 0.375355 q 0.117299,0 0.204435,0.0402 0.09049,0.0402 0.147461,0.1106 0.06032,0.0704 0.08714,0.16757 0.03016,0.0972 0.03016,0.20778 v 0.0101 q 0,0.11059 -0.03686,0.20108 -0.03351,0.0905 -0.09719,0.15417 -0.06368,0.0637 -0.150812,0.10054 -0.08714,0.0369 -0.184327,0.0369 h -0.811036 v -0.33178 h 0.697089 q 0.07708,0 0.140759,-0.0436 0.06703,-0.0436 0.07038,-0.13071 v 0.003 q 0,-0.0503 -0.02011,-0.0838 -0.01676,-0.0335 -0.04692,-0.0536 -0.03016,-0.0235 -0.06703,-0.0335 -0.03687,-0.0101 -0.07708,-0.0101 h -0.301625 q -0.147461,0 -0.244651,-0.0469 -0.09384,-0.0469 -0.150813,-0.12065 -0.05362,-0.0737 -0.07373,-0.16757 -0.02011,-0.0938 -0.02011,-0.19103 0,-0.10054 0.03016,-0.19438 0.03016,-0.0938 0.08714,-0.16422 0.06032,-0.0737 0.147461,-0.11394 0.08714,-0.0402 0.197732,-0.0402 h 0.750711 z"
           style="font-style:normal;font-variant:normal;font-weight:normal;font-stretch:normal;font-size:3.35138893px;font-family:'Do Hyeon';-inkscape-font-specification:'Do Hyeon';letter-spacing:0.3175px;fill:#f5f5f5;fill-opacity:1;stroke-width:0.26458332px"
           id="path1645" />
      </g>
    </g>
  </g>
</svg>
